<svg width="144" height="31" viewBox="0 0 144 31" fill="none" xmlns="http://www.w3.org/2000/svg">
<path d="M8.9062 7.75V17.3493C8.9062 18.3092 9.14637 19.0482 9.62671 19.5663C10.1071 20.0843 10.8121 20.3434 11.7418 20.3434C12.6715 20.3434 13.3842 20.0843 13.8801 19.5663C14.3759 19.0482 14.6238 18.3092 14.6238 17.3493V7.75H18.5982V17.3265C18.5982 18.7587 18.2884 19.9701 17.6686 20.9605C17.0488 21.9509 16.212 22.6975 15.1584 23.2003C14.1202 23.7031 12.9581 23.9545 11.672 23.9545C10.386 23.9545 9.23159 23.7108 8.20893 23.2232C7.20176 22.7203 6.40378 21.9737 5.81497 20.9833C5.22617 19.9777 4.93176 18.7587 4.93176 17.3265V7.75H8.9062Z" fill="#A259FF"/>
<path d="M25.3636 7.75V23.7946H21.3891V7.75H25.3636Z" fill="#A259FF"/>
<path d="M32.4091 16.1166C32.4091 14.6071 32.7356 13.2644 33.3888 12.0887C34.042 10.8985 34.9491 9.97685 36.1103 9.32369C37.286 8.65601 38.6141 8.32217 40.0946 8.32217C41.909 8.32217 43.462 8.80116 44.7538 9.75913C46.0457 10.7171 46.9093 12.0234 47.3447 13.6781H43.2516C42.9468 13.0395 42.5113 12.5532 41.9452 12.2194C41.3937 11.8855 40.7623 11.7186 40.0511 11.7186C38.9044 11.7186 37.9755 12.1178 37.2642 12.9161C36.553 13.7144 36.1974 14.7812 36.1974 16.1166C36.1974 17.4519 36.553 18.5188 37.2642 19.3171C37.9755 20.1154 38.9044 20.5146 40.0511 20.5146C40.7623 20.5146 41.3937 20.3476 41.9452 20.0138C42.5113 19.68 42.9468 19.1937 43.2516 18.5551H47.3447C46.9093 20.2097 46.0457 21.5161 44.7538 22.474C43.462 23.4175 41.909 23.8892 40.0946 23.8892C38.6141 23.8892 37.286 23.5626 36.1103 22.9095C34.9491 22.2418 34.042 21.3201 33.3888 20.1444C32.7356 18.9687 32.4091 17.6261 32.4091 16.1166Z" fill="#444956"/>
<path d="M55.1548 23.9545C53.9646 23.9545 52.8905 23.7005 51.9325 23.1925C50.9891 22.6845 50.2415 21.9588 49.69 21.0153C49.1529 20.0719 48.8844 18.9687 48.8844 17.706C48.8844 16.4577 49.1602 15.3618 49.7118 14.4184C50.2633 13.4604 51.0181 12.7274 51.9761 12.2194C52.934 11.7114 54.0081 11.4574 55.1983 11.4574C56.3885 11.4574 57.4626 11.7114 58.4206 12.2194C59.3786 12.7274 60.1333 13.4604 60.6849 14.4184C61.2365 15.3618 61.5122 16.4577 61.5122 17.706C61.5122 18.9542 61.2292 20.0573 60.6631 21.0153C60.1116 21.9588 59.3495 22.6845 58.3771 23.1925C57.4191 23.7005 56.345 23.9545 55.1548 23.9545ZM55.1548 20.7323C55.866 20.7323 56.4684 20.471 56.9619 19.9485C57.4699 19.4259 57.7239 18.6784 57.7239 17.706C57.7239 16.7335 57.4771 15.986 56.9836 15.4634C56.5047 14.9409 55.9096 14.6796 55.1983 14.6796C54.4726 14.6796 53.8702 14.9409 53.3912 15.4634C52.9123 15.9714 52.6728 16.719 52.6728 17.706C52.6728 18.6784 52.905 19.4259 53.3695 19.9485C53.8485 20.471 54.4436 20.7323 55.1548 20.7323Z" fill="#444956"/>
<path d="M67.2104 7.66901V23.7804H63.4874V7.66901H67.2104Z" fill="#444956"/>
<path d="M73.6315 7.66901V23.7804H69.9085V7.66901H73.6315Z" fill="#444956"/>
<path d="M87.7816 17.51C87.7816 17.8584 87.7599 18.2212 87.7163 18.5986H79.2905C79.3486 19.3534 79.5881 19.934 80.009 20.3404C80.4445 20.7323 80.9742 20.9282 81.5984 20.9282C82.5273 20.9282 83.1732 20.5363 83.5361 19.7525H87.4986C87.2954 20.5508 86.9253 21.2693 86.3882 21.908C85.8657 22.5466 85.2053 23.0474 84.407 23.4102C83.6087 23.7731 82.716 23.9545 81.729 23.9545C80.5388 23.9545 79.4792 23.7005 78.5503 23.1925C77.6213 22.6845 76.8956 21.9588 76.3731 21.0153C75.8505 20.0719 75.5893 18.9687 75.5893 17.706C75.5893 16.4432 75.8433 15.34 76.3513 14.3966C76.8738 13.4531 77.5996 12.7274 78.5285 12.2194C79.4574 11.7114 80.5243 11.4574 81.729 11.4574C82.9047 11.4574 83.9498 11.7041 84.8642 12.1976C85.7786 12.6911 86.4898 13.3951 86.9979 14.3095C87.5204 15.2239 87.7816 16.2908 87.7816 17.51ZM83.9715 16.5303C83.9715 15.8916 83.7538 15.3836 83.3184 15.0062C82.8829 14.6288 82.3386 14.4401 81.6855 14.4401C81.0613 14.4401 80.5315 14.6216 80.0961 14.9844C79.6752 15.3473 79.4139 15.8626 79.3123 16.5303H83.9715Z" fill="#444956"/>
<path d="M89.0055 17.706C89.0055 16.4432 89.2595 15.34 89.7675 14.3966C90.29 13.4531 91.0085 12.7274 91.9229 12.2194C92.8519 11.7114 93.9115 11.4574 95.1017 11.4574C96.6257 11.4574 97.8958 11.8565 98.9118 12.6548C99.9423 13.4531 100.617 14.578 100.937 16.0295H96.9741C96.6402 15.1006 95.9943 14.6361 95.0364 14.6361C94.3542 14.6361 93.8099 14.9046 93.4034 15.4417C92.997 15.9642 92.7938 16.719 92.7938 17.706C92.7938 18.693 92.997 19.455 93.4034 19.992C93.8099 20.5146 94.3542 20.7758 95.0364 20.7758C95.9943 20.7758 96.6402 20.3113 96.9741 19.3824H100.937C100.617 20.8048 99.9423 21.9225 98.9118 22.7353C97.8812 23.5481 96.6112 23.9545 95.1017 23.9545C93.9115 23.9545 92.8519 23.7005 91.9229 23.1925C91.0085 22.6845 90.29 21.9588 89.7675 21.0153C89.2595 20.0719 89.0055 18.9687 89.0055 17.706Z" fill="#444956"/>
<path d="M109.699 20.6234V23.7804H107.805C106.455 23.7804 105.403 23.4538 104.648 22.8006C103.893 22.1329 103.516 21.0516 103.516 19.5566V14.7232H102.035V11.6315H103.516V8.67053H107.239V11.6315H109.677V14.7232H107.239V19.6001C107.239 19.963 107.326 20.2243 107.5 20.3839C107.674 20.5436 107.965 20.6234 108.371 20.6234H109.699Z" fill="#444956"/>
<path d="M113.645 10.3688C112.992 10.3688 112.455 10.1801 112.034 9.80268C111.628 9.41078 111.425 8.93179 111.425 8.36572C111.425 7.78513 111.628 7.30614 112.034 6.92876C112.455 6.53686 112.992 6.34091 113.645 6.34091C114.284 6.34091 114.807 6.53686 115.213 6.92876C115.634 7.30614 115.844 7.78513 115.844 8.36572C115.844 8.93179 115.634 9.41078 115.213 9.80268C114.807 10.1801 114.284 10.3688 113.645 10.3688ZM115.496 11.6315V23.7804H111.773V11.6315H115.496Z" fill="#444956"/>
<path d="M123.659 20.2968L126.293 11.6315H130.256L125.945 23.7804H121.351L117.04 11.6315H121.024L123.659 20.2968Z" fill="#444956"/>
<path d="M143.275 17.51C143.275 17.8584 143.253 18.2212 143.21 18.5986H134.784C134.842 19.3534 135.081 19.934 135.502 20.3404C135.938 20.7323 136.468 20.9282 137.092 20.9282C138.021 20.9282 138.667 20.5363 139.029 19.7525H142.992C142.789 20.5508 142.419 21.2693 141.882 21.908C141.359 22.5466 140.699 23.0474 139.9 23.4102C139.102 23.7731 138.209 23.9545 137.222 23.9545C136.032 23.9545 134.973 23.7005 134.044 23.1925C133.115 22.6845 132.389 21.9588 131.866 21.0153C131.344 20.0719 131.083 18.9687 131.083 17.706C131.083 16.4432 131.337 15.34 131.845 14.3966C132.367 13.4531 133.093 12.7274 134.022 12.2194C134.951 11.7114 136.018 11.4574 137.222 11.4574C138.398 11.4574 139.443 11.7041 140.358 12.1976C141.272 12.6911 141.983 13.3951 142.491 14.3095C143.014 15.2239 143.275 16.2908 143.275 17.51ZM139.465 16.5303C139.465 15.8916 139.247 15.3836 138.812 15.0062C138.376 14.6288 137.832 14.4401 137.179 14.4401C136.555 14.4401 136.025 14.6216 135.589 14.9844C135.169 15.3473 134.907 15.8626 134.806 16.5303H139.465Z" fill="#444956"/>
<mask id="path-3-inside-1_2_21" fill="white">
<path fill-rule="evenodd" clip-rule="evenodd" d="M0 0H4.93182V1.40909H26.7727V0H31.7045V4.93182H30.2955V26.0682H31.7045V31H26.7727V29.5909H4.93182V31H0V26.0682H1.40909V4.93182H0V0ZM4.93182 27.5909V26.0682H3.40909V4.93182H4.93182V3.40909H26.7727V4.93182H28.2955V26.0682H26.7727V27.5909H4.93182Z"/>
</mask>
<path d="M4.93182 0H6.93182V-2H4.93182V0ZM0 0V-2H-2V0H0ZM4.93182 1.40909H2.93182V3.40909H4.93182V1.40909ZM26.7727 1.40909V3.40909H28.7727V1.40909H26.7727ZM26.7727 0V-2H24.7727V0H26.7727ZM31.7045 0H33.7045V-2H31.7045V0ZM31.7045 4.93182V6.93182H33.7045V4.93182H31.7045ZM30.2955 4.93182V2.93182H28.2955V4.93182H30.2955ZM30.2955 26.0682H28.2955V28.0682H30.2955V26.0682ZM31.7045 26.0682H33.7045V24.0682H31.7045V26.0682ZM31.7045 31V33H33.7045V31H31.7045ZM26.7727 31H24.7727V33H26.7727V31ZM26.7727 29.5909H28.7727V27.5909H26.7727V29.5909ZM4.93182 29.5909V27.5909H2.93182V29.5909H4.93182ZM4.93182 31V33H6.93182V31H4.93182ZM0 31H-2V33H0V31ZM0 26.0682V24.0682H-2V26.0682H0ZM1.40909 26.0682V28.0682H3.40909V26.0682H1.40909ZM1.40909 4.93182H3.40909V2.93182H1.40909V4.93182ZM0 4.93182H-2V6.93182H0V4.93182ZM4.93182 26.0682H6.93182V24.0682H4.93182V26.0682ZM4.93182 27.5909H2.93182V29.5909H4.93182V27.5909ZM3.40909 26.0682H1.40909V28.0682H3.40909V26.0682ZM3.40909 4.93182V2.93182H1.40909V4.93182H3.40909ZM4.93182 4.93182V6.93182H6.93182V4.93182H4.93182ZM4.93182 3.40909V1.40909H2.93182V3.40909H4.93182ZM26.7727 3.40909H28.7727V1.40909H26.7727V3.40909ZM26.7727 4.93182H24.7727V6.93182H26.7727V4.93182ZM28.2955 4.93182H30.2955V2.93182H28.2955V4.93182ZM28.2955 26.0682V28.0682H30.2955V26.0682H28.2955ZM26.7727 26.0682V24.0682H24.7727V26.0682H26.7727ZM26.7727 27.5909V29.5909H28.7727V27.5909H26.7727ZM4.93182 -2H0V2H4.93182V-2ZM6.93182 1.40909V0H2.93182V1.40909H6.93182ZM26.7727 -0.590909H4.93182V3.40909H26.7727V-0.590909ZM24.7727 0V1.40909H28.7727V0H24.7727ZM31.7045 -2H26.7727V2H31.7045V-2ZM33.7045 4.93182V0H29.7045V4.93182H33.7045ZM30.2955 6.93182H31.7045V2.93182H30.2955V6.93182ZM32.2955 26.0682V4.93182H28.2955V26.0682H32.2955ZM31.7045 24.0682H30.2955V28.0682H31.7045V24.0682ZM33.7045 31V26.0682H29.7045V31H33.7045ZM26.7727 33H31.7045V29H26.7727V33ZM24.7727 29.5909V31H28.7727V29.5909H24.7727ZM4.93182 31.5909H26.7727V27.5909H4.93182V31.5909ZM2.93182 29.5909V31H6.93182V29.5909H2.93182ZM4.93182 29H0V33H4.93182V29ZM2 31V26.0682H-2V31H2ZM0 28.0682H1.40909V24.0682H0V28.0682ZM-0.590909 4.93182V26.0682H3.40909V4.93182H-0.590909ZM0 6.93182H1.40909V2.93182H0V6.93182ZM-2 0V4.93182H2V0H-2ZM2.93182 26.0682V27.5909H6.93182V26.0682H2.93182ZM3.40909 28.0682H4.93182V24.0682H3.40909V28.0682ZM5.40909 26.0682V4.93182H1.40909V26.0682H5.40909ZM3.40909 6.93182H4.93182V2.93182H3.40909V6.93182ZM6.93182 4.93182V3.40909H2.93182V4.93182H6.93182ZM4.93182 5.40909H26.7727V1.40909H4.93182V5.40909ZM24.7727 3.40909V4.93182H28.7727V3.40909H24.7727ZM26.7727 6.93182H28.2955V2.93182H26.7727V6.93182ZM26.2955 4.93182V26.0682H30.2955V4.93182H26.2955ZM28.2955 24.0682H26.7727V28.0682H28.2955V24.0682ZM24.7727 26.0682V27.5909H28.7727V26.0682H24.7727ZM26.7727 25.5909H4.93182V29.5909H26.7727V25.5909Z" fill="#A259FF" mask="url(#path-3-inside-1_2_21)"/>
</svg>
