<svg xmlns="http://www.w3.org/2000/svg" width="100%" height="100%" viewBox="0 0 272 37" fill="none" preserveAspectRatio="xMidYMid meet" aria-hidden="true" role="img">
<g clip-path="url(#clip0_23_2)">
<mask id="mask0_23_2" style="mask-type:luminance" maskUnits="userSpaceOnUse" x="0" y="0" width="37" height="37">
<path d="M36.4228 0H0V36.4228H36.4228V0Z" fill="white"/>
</mask>
<g mask="url(#mask0_23_2)">
<mask id="mask1_23_2" style="mask-type:luminance" maskUnits="userSpaceOnUse" x="-13" y="-13" width="62" height="62">
<path d="M48.5905 -12.1409H-12.1411V48.5637H48.5905V-12.1409Z" fill="white"/>
</mask>
<g mask="url(#mask1_23_2)">
<path d="M18.2112 21.6804C17.3669 21.6812 16.5515 21.3727 15.9192 20.8132H20.5032C19.8708 21.3727 19.0555 21.6812 18.2112 21.6804ZM15.6095 20.5037C15.0507 19.871 14.7422 19.0558 14.7422 18.2116C14.7422 17.3673 15.0507 16.5522 15.6095 15.9194V20.5037Z" fill="#FCFAEE"/>
<path d="M18.2116 12.1411C17.0109 12.1411 15.8373 12.4971 14.839 13.1641C13.8407 13.8312 13.0626 14.7792 12.6032 15.8885C12.1437 16.9977 12.0235 18.2183 12.2577 19.3958C12.4919 20.5734 13.0701 21.655 13.919 22.504C14.768 23.353 15.8497 23.9311 17.0272 24.1654C18.2048 24.3996 19.4253 24.2794 20.5346 23.8199C21.6438 23.3605 22.5919 22.5824 23.2589 21.5841C23.9259 20.5858 24.282 19.4122 24.282 18.2116H18.2116V12.1411Z" fill="#FCFAEE"/>
<path d="M18.2114 6.07056V12.141C19.0086 12.1408 19.7981 12.2977 20.5347 12.6027C21.2713 12.9076 21.9406 13.3548 22.5044 13.9185C23.0681 14.4823 23.5152 15.1515 23.8202 15.8882C24.1252 16.6248 24.282 17.4142 24.2818 18.2115H30.3524C30.3528 16.617 30.0391 15.038 29.4291 13.5648C28.8191 12.0916 27.9248 10.7531 26.7973 9.62558C25.6698 8.49811 24.3313 7.60383 22.8581 6.99385C21.3849 6.38386 19.8059 6.07013 18.2114 6.07056Z" fill="#FCFAEE"/>
<path d="M18.2114 0C13.3834 0.00639128 8.75496 1.92714 5.34105 5.34105C1.92714 8.75496 0.00639128 13.3834 0 18.2114H6.07041C6.06998 16.6169 6.38373 15.0379 6.99372 13.5647C7.60371 12.0915 8.49799 10.753 9.62547 9.62549C10.753 8.49802 12.0916 7.60374 13.5648 6.99375C15.038 6.38377 16.6169 6.07003 18.2114 6.07046V0Z" fill="#FCFAEE"/>
<path d="M36.4225 18.2114H30.3521C30.3518 20.6127 29.6396 22.9599 28.3055 24.9564C26.9713 26.9529 25.0752 28.509 22.8568 29.428C20.6383 30.3469 18.1972 30.5875 15.8421 30.1193C13.487 29.651 11.3235 28.495 9.62535 26.7973L5.3418 31.0808C7.88652 33.63 11.1304 35.3668 14.6628 36.0713C18.1952 36.7758 21.8572 36.4163 25.1852 35.0383C28.5131 33.6604 31.3574 31.3259 33.3578 28.3304C35.3582 25.335 36.4248 21.8134 36.4225 18.2114Z" fill="#FCFAEE"/>
</g>
</g>
<path d="M51.8639 28.9546L47.3496 7.47218H54.2373L55.424 16.9954C55.4443 17.183 55.4703 17.4588 55.5019 17.8229C55.5332 18.1876 55.5801 18.5883 55.6425 19.0253C55.7048 19.4623 55.7463 19.8578 55.767 20.2115H56.0169C56.0205 19.9444 56.0465 19.6781 56.0948 19.4153C56.1465 19.1138 56.1883 18.812 56.2202 18.5099C56.2511 18.2083 56.2875 17.9222 56.3294 17.6514C56.3661 17.4345 56.3869 17.2153 56.3917 16.9954L57.8592 7.47218H64.3229L65.6654 16.9954C65.7069 17.2249 65.7486 17.5269 65.7904 17.9013C65.8319 18.2761 65.884 18.6715 65.9467 19.0875C66.0089 19.5043 66.0504 19.8789 66.0712 20.2115H66.2897C66.3105 19.9829 66.3371 19.7177 66.3681 19.4153C66.399 19.1138 66.4302 18.8224 66.4616 18.5412C66.493 18.26 66.5243 17.9847 66.5557 17.7136C66.5866 17.4434 66.6126 17.204 66.6336 16.9954L67.9135 7.47217H74.3954L69.8811 28.9546H62.949L61.4188 19.0562C61.3769 18.7652 61.3353 18.427 61.2939 18.0415C61.252 17.6569 61.2 17.2615 61.138 16.8552C61.0754 16.449 61.0233 16.1003 60.9818 15.8091H60.7632C60.7425 16.1212 60.7008 16.4856 60.6383 16.9022C60.5756 17.3189 60.5132 17.7196 60.4511 18.1041C60.3884 18.4896 60.3466 18.7966 60.3257 19.0253L58.796 28.9546H51.8639Z" fill="#FCFAEE"/>
<path d="M73.0488 28.9546L77.9146 7.47217H86.819L91.7161 28.9546H85.6145L84.9585 25.8325H79.5879L78.9636 28.9546H73.0488ZM80.5874 21.0552H83.9908L83.1785 16.8395C83.1369 16.632 83.0853 16.366 83.0226 16.0433C82.9599 15.7206 82.8977 15.3614 82.8354 14.9659C82.7727 14.5707 82.705 14.1805 82.6321 13.7953C82.5593 13.4099 82.4916 13.0716 82.4293 12.7805H82.1485C82.0858 13.1549 82.0129 13.5868 81.9299 14.0761C81.8461 14.5652 81.7576 15.0493 81.6644 15.5283C81.5708 16.0069 81.4718 16.4439 81.3675 16.8395L80.5874 21.0552Z" fill="#FCFAEE"/>
<path d="M93.0645 28.9546V7.47217H99.2783V16.3711L104.274 7.47217H111.3L105.867 16.6837L111.456 28.9546H104.399L101.558 21.6168L99.2783 24.0838V28.9546H93.0645Z" fill="#FCFAEE"/>
<path d="M112.98 28.9546V7.47217H119.194V28.9546H112.98Z" fill="#FCFAEE"/>
<path d="M121.551 28.9546V7.47217H127.203L131.106 14.4661C131.231 14.6957 131.382 14.956 131.559 15.2471C131.735 15.5389 131.917 15.8459 132.105 16.1682C132.278 16.4575 132.414 16.7669 132.511 17.0894L132.667 17.058V7.47217H138.475V28.9546H132.823L128.546 21.5854C128.337 21.1484 128.15 20.7373 127.983 20.3522C127.816 19.9676 127.66 19.5774 127.515 19.1816L127.359 19.2129V28.9546H121.551Z" fill="#FCFAEE"/>
<path d="M148.786 29.3295C145.976 29.3295 143.837 28.4083 142.369 26.566C140.901 24.7237 140.168 21.9395 140.168 18.2134C140.168 15.6952 140.532 13.6135 141.26 11.9683C141.897 10.4283 143.022 9.1396 144.461 8.29975C146.049 7.45398 147.831 7.0394 149.629 7.09739C150.84 7.08256 152.046 7.25645 153.204 7.61281C154.221 7.92583 155.162 8.44676 155.967 9.14256C156.749 9.83578 157.359 10.7018 157.747 11.6718C158.187 12.8113 158.399 14.026 158.372 15.2472H152.377C152.381 14.8257 152.328 14.4056 152.22 13.9982C152.124 13.6392 151.954 13.3041 151.721 13.0144C151.493 12.7348 151.205 12.5106 150.878 12.3588C150.494 12.1926 150.078 12.1127 149.66 12.1246C149.153 12.1107 148.648 12.2011 148.177 12.3901C147.778 12.5611 147.44 12.8498 147.209 13.2177C146.949 13.6445 146.769 14.1153 146.678 14.6068C146.557 15.2291 146.499 15.8621 146.506 16.4961V19.9308C146.485 20.7539 146.59 21.5753 146.818 22.3665C146.984 22.9508 147.335 23.4657 147.818 23.834C148.373 24.1951 149.03 24.3702 149.691 24.3337C150.223 24.3528 150.749 24.2171 151.206 23.9432C151.605 23.6905 151.929 23.3344 152.142 22.9128C152.364 22.4725 152.477 21.9853 152.47 21.4923V21.336H149.192V16.9645H158.372V28.9547H155.156L154.687 26.8938C154.247 27.3754 153.749 27.8002 153.204 28.1584C152.616 28.5394 151.974 28.829 151.299 29.0173C150.48 29.2381 149.634 29.3432 148.786 29.3295Z" fill="#FCFAEE"/>
<path d="M165.657 28.9546V7.47217H174.581C176.621 7.47217 178.265 7.85729 179.515 8.62752C180.807 9.45174 181.781 10.6902 182.278 12.1402C182.928 14.0752 183.23 16.1103 183.168 18.1507C183.227 20.2065 182.926 22.2566 182.278 24.2087C181.784 25.6856 180.797 26.9479 179.484 27.784C178.213 28.5646 176.548 28.9548 174.487 28.9546H165.657ZM171.871 23.9275H174.238C174.673 23.9408 175.105 23.8554 175.502 23.6776C175.842 23.5149 176.125 23.2539 176.314 22.9284C176.532 22.5325 176.67 22.0974 176.72 21.6481C176.798 21.0477 176.834 20.4426 176.829 19.8372V16.8708C176.835 16.2498 176.798 15.6291 176.72 15.0129C176.665 14.54 176.527 14.0804 176.314 13.6547C176.132 13.2964 175.85 12.9982 175.502 12.7958C175.114 12.5874 174.678 12.4851 174.238 12.4993H171.871V23.9275Z" fill="#FCFAEE"/>
<path d="M185.248 28.9546V7.47217H191.461V28.9546H185.248Z" fill="#FCFAEE"/>
<path d="M201.771 29.3295C198.961 29.3295 196.823 28.4083 195.355 26.566C193.887 24.7237 193.153 21.9395 193.153 18.2134C193.153 15.6952 193.518 13.6135 194.246 11.9683C194.883 10.4283 196.007 9.1396 197.447 8.29975C199.035 7.45398 200.817 7.0394 202.615 7.09739C203.826 7.08256 205.032 7.25645 206.19 7.61281C207.207 7.92583 208.148 8.44675 208.953 9.14256C209.735 9.83578 210.344 10.7018 210.733 11.6718C211.173 12.8113 211.385 14.026 211.358 15.2472H205.363C205.367 14.8257 205.314 14.4056 205.206 13.9982C205.11 13.6392 204.94 13.3041 204.707 13.0144C204.479 12.7348 204.191 12.5106 203.864 12.3588C203.48 12.1926 203.064 12.1127 202.646 12.1246C202.139 12.1107 201.634 12.2011 201.163 12.3901C200.764 12.5611 200.426 12.8498 200.195 13.2177C199.935 13.6445 199.755 14.1153 199.664 14.6068C199.543 15.2291 199.485 15.8621 199.492 16.4961V19.9308C199.471 20.7539 199.576 21.5753 199.804 22.3665C199.97 22.9508 200.321 23.4657 200.804 23.834C201.359 24.1951 202.015 24.3702 202.677 24.3337C203.209 24.3528 203.735 24.2171 204.191 23.9432C204.591 23.6905 204.915 23.3344 205.128 22.9128C205.35 22.4725 205.463 21.9853 205.456 21.4923V21.336H202.178V16.9645H211.358V28.9547H208.142L207.673 26.8938C207.233 27.3754 206.735 27.8002 206.19 28.1584C205.602 28.5394 204.96 28.829 204.285 29.0173C203.466 29.2381 202.62 29.3432 201.771 29.3295Z" fill="#FCFAEE"/>
<path d="M213.715 28.9546V7.47217H219.928V28.9546H213.715Z" fill="#FCFAEE"/>
<path d="M226.804 28.9546V12.6552H221.433V7.47217H238.326V12.6552H233.018V28.9546H226.804Z" fill="#FCFAEE"/>
<path d="M256.723 28.9546V7.47217H262.937V23.7716H271.18V28.9546H256.723Z" fill="#FCFAEE"/>
<path d="M236.707 28.9546L241.573 7.47217H250.478L255.375 28.9546H249.273L248.617 25.8325H243.246L242.622 28.9546H236.707ZM244.246 21.0552H247.649L246.837 16.8395C246.796 16.632 246.744 16.366 246.681 16.0433C246.619 15.7206 246.556 15.3614 246.494 14.9659C246.431 14.5707 246.364 14.1805 246.291 13.7953C246.218 13.4099 246.15 13.0716 246.088 12.7805H245.807C245.744 13.1549 245.672 13.5868 245.589 14.0761C245.505 14.5652 245.416 15.0493 245.323 15.5283C245.229 16.0069 245.13 16.4439 245.026 16.8395L244.246 21.0552Z" fill="#FCFAEE"/>
</g>
<defs>
<clipPath id="clip0_23_2">
<rect width="272" height="37" fill="white"/>
</clipPath>
</defs>
</svg>