<svg width="109" height="32" viewBox="0 0 109 32" fill="none" xmlns="http://www.w3.org/2000/svg">
<path d="M40.8773 24.998H37.8053V7.45405H44.5013C48.4853 7.45405 50.8133 9.47005 50.8133 12.926C50.8133 15.278 49.7093 16.958 47.6453 17.798L50.9813 24.998H47.6213L44.6453 18.446H40.8773V24.998ZM40.8773 10.19V15.734H44.5013C46.4453 15.734 47.5973 14.702 47.5973 12.926C47.5973 11.174 46.4453 10.19 44.5013 10.19H40.8773ZM57.0717 25.31C53.5437 25.31 51.0717 22.742 51.0717 19.07C51.0717 15.35 53.4957 12.782 56.9757 12.782C60.5277 12.782 62.7837 15.158 62.7837 18.854V19.742L53.8557 19.766C54.0717 21.854 55.1757 22.91 57.1197 22.91C58.7277 22.91 59.7837 22.286 60.1197 21.158H62.8317C62.3277 23.75 60.1677 25.31 57.0717 25.31ZM56.9997 15.182C55.2717 15.182 54.2157 16.118 53.9277 17.894H59.8797C59.8797 16.262 58.7517 15.182 56.9997 15.182ZM63.1111 13.142H64.8151V11.702C64.8151 8.48605 66.4471 7.14205 68.8471 7.14205C69.3031 7.14205 69.8551 7.16605 70.3591 7.26205V9.75805H69.3271C68.0071 9.75805 67.7191 10.526 67.7191 11.702V13.142H72.4471V7.14205H75.3751V24.998H72.4471V15.59H67.7191V24.998H64.8151V15.59H63.1111V13.142ZM76.9073 19.046C76.9073 15.35 79.5713 12.806 83.2433 12.806C86.9153 12.806 89.5793 15.35 89.5793 19.046C89.5793 22.742 86.9153 25.286 83.2433 25.286C79.5713 25.286 76.9073 22.742 76.9073 19.046ZM79.8353 19.046C79.8353 21.206 81.2273 22.67 83.2433 22.67C85.2593 22.67 86.6513 21.206 86.6513 19.046C86.6513 16.886 85.2593 15.422 83.2433 15.422C81.2273 15.422 79.8353 16.886 79.8353 19.046ZM93.0903 24.998L89.2503 13.142H92.2983L93.8583 18.23C94.1223 19.166 94.3623 20.198 94.5783 21.302C94.7943 20.15 95.0103 19.406 95.3943 18.23L97.0263 13.142H100.002L101.586 18.23C101.73 18.71 102.21 20.486 102.354 21.278C102.546 20.39 102.93 18.974 103.146 18.23L104.73 13.142H107.826L103.722 24.998H100.986L99.3543 19.862C98.8743 18.302 98.6103 17.174 98.5143 16.574C98.3943 17.126 98.1783 17.966 97.5783 19.91L95.9463 24.998H93.0903Z" fill="white"/>
<path d="M11.6261 15.0683L17.3635 14.6177C19.0181 14.4886 20.5727 13.7725 21.7465 12.6009L28.4967 5.86367H20.846L14.0397 12.6569L11.6237 15.0683H11.6261ZM17.3635 18.3322L11.6261 17.8816L14.0421 20.293L20.8485 27.0862H28.4991L21.749 20.349C20.5751 19.1774 19.0206 18.4637 17.366 18.3322H17.3635ZM10.1204 13.5143L17.7833 5.86611L13.9592 2.04688L3.32872 12.6569L0 15.9793L5.73741 15.5287C7.39201 15.3996 8.94656 14.6835 10.1204 13.5119V13.5143ZM5.73741 17.4212L0 16.9706L3.32872 20.293L13.9592 30.903L17.7833 27.0862L10.1204 19.438C8.94656 18.2664 7.39201 17.5528 5.73741 17.4212Z" fill="#75FF45"/>
</svg>
