<svg width="35" height="6" viewBox="0 0 35 6" fill="none" xmlns="http://www.w3.org/2000/svg">
<path d="M7.6407 1.34341C7.83075 1.44545 7.98049 1.59652 8.08992 1.79693C8.19935 1.99735 8.25423 2.23911 8.25423 2.52256V4.365H7.60343V2.61894C7.60343 2.33916 7.53229 2.12474 7.39034 1.97567C7.24839 1.82628 7.05427 1.75158 6.80865 1.75158C6.56304 1.75158 6.36824 1.82628 6.22426 1.97567C6.08028 2.12507 6.00812 2.33949 6.00812 2.61894V4.365H5.35156V0.169922H6.00812V1.60419C6.11958 1.4718 6.26051 1.36975 6.43159 1.29806C6.60234 1.22636 6.78968 1.19035 6.99329 1.19035C7.23518 1.19035 7.45098 1.24137 7.64104 1.34341H7.6407Z" fill="#0C0A09"/>
<path d="M11.7331 1.24252V4.36615H11.0765V3.99767C10.9729 4.12605 10.8374 4.22709 10.6703 4.30079C10.5033 4.37449 10.3258 4.41117 10.1378 4.41117C9.88809 4.41117 9.66449 4.36015 9.46665 4.25811C9.2688 4.15606 9.1133 4.005 9.00015 3.80459C8.88699 3.60417 8.83008 3.3624 8.83008 3.07895V1.24219H9.48087V2.98258C9.48087 3.26236 9.55202 3.47678 9.69397 3.62584C9.83592 3.77524 10.03 3.8496 10.2757 3.8496C10.5213 3.8496 10.7164 3.77491 10.8604 3.62584C11.0044 3.47645 11.0765 3.26203 11.0765 2.98258V1.24219H11.7331V1.24252Z" fill="#0C0A09"/>
<path d="M16.7642 1.3448C16.962 1.44684 17.1175 1.59791 17.2307 1.79833C17.3438 1.99874 17.4007 2.24051 17.4007 2.52396V4.36639H16.7499V2.62033C16.7499 2.34055 16.6788 2.12613 16.5368 1.97707C16.3949 1.82767 16.2008 1.75297 15.9552 1.75297C15.7095 1.75297 15.5147 1.82767 15.3708 1.97707C15.2268 2.12646 15.1546 2.34088 15.1546 2.62033V4.36639H14.5038V2.62033C14.5038 2.34055 14.4327 2.12613 14.2907 1.97707C14.1488 1.82767 13.9547 1.75297 13.709 1.75297C13.4634 1.75297 13.2686 1.82767 13.1247 1.97707C12.9807 2.12646 12.9085 2.34088 12.9085 2.62033V4.36639H12.252V1.24276H12.9085V1.59991C13.0159 1.47152 13.1524 1.37115 13.3174 1.29945C13.4824 1.22775 13.6592 1.19174 13.8473 1.19174C14.1007 1.19174 14.3273 1.24476 14.5269 1.35047C14.7264 1.45618 14.8802 1.60925 14.9876 1.80966C15.0835 1.62059 15.2332 1.47052 15.4368 1.35881C15.6404 1.24743 15.8593 1.19141 16.0934 1.19141C16.3431 1.19141 16.5667 1.24243 16.7642 1.34447V1.3448Z" fill="#0C0A09"/>
<path d="M19.1185 1.33474C19.3123 1.23836 19.5284 1.19035 19.7662 1.19035C20.0464 1.19035 20.2998 1.25637 20.5265 1.38876C20.7531 1.52115 20.9316 1.70889 21.0621 1.953C21.1925 2.19676 21.2579 2.47554 21.2579 2.78934C21.2579 3.10314 21.1925 3.38359 21.0621 3.63103C20.9316 3.87847 20.7521 4.07121 20.5234 4.20927C20.2951 4.34733 20.0427 4.41602 19.7662 4.41602C19.5206 4.41602 19.3025 4.36867 19.1127 4.27429C18.923 4.17992 18.7719 4.05887 18.6605 3.91148V4.365H18.0039V0.169922H18.6605V1.70623C18.7719 1.55516 18.9244 1.43111 19.1185 1.33474ZM20.4546 2.23045C20.3645 2.07371 20.2453 1.95466 20.0976 1.8733C19.9499 1.79193 19.7913 1.75125 19.6226 1.75125C19.4539 1.75125 19.3011 1.79293 19.1534 1.87597C19.0057 1.959 18.8864 2.08005 18.7963 2.23878C18.7062 2.39752 18.6608 2.58459 18.6608 2.80002C18.6608 3.01544 18.7059 3.20352 18.7963 3.36425C18.8864 3.52499 19.0057 3.6467 19.1534 3.72974C19.3011 3.81277 19.4576 3.85445 19.6226 3.85445C19.7876 3.85445 19.9499 3.81177 20.0976 3.72674C20.2453 3.6417 20.3645 3.51798 20.4546 3.35558C20.5448 3.19318 20.5902 3.0041 20.5902 2.78868C20.5902 2.57326 20.5451 2.38718 20.4546 2.23011V2.23045Z" fill="#0C0A09"/>
<path d="M22.3362 0.169922V4.365H21.6797V0.169922H22.3362Z" fill="#0C0A09"/>
<path d="M25.8266 1.24219L23.88 5.83409H23.2004L23.8455 4.3148L22.5957 1.24219H23.3271L24.2198 3.62318L25.1471 1.24219H25.8266Z" fill="#0C0A09"/>
<path d="M26.9719 1.76905V3.49811C26.9719 3.61516 26.9997 3.69919 27.0556 3.75021C27.1111 3.80123 27.2063 3.82658 27.3408 3.82658H27.744V4.36513H27.2256C26.9299 4.36513 26.7036 4.29711 26.546 4.16105C26.3885 4.02499 26.3099 3.8039 26.3099 3.49777V1.76872H25.9355V1.2415H26.3099V0.464844H26.9722V1.2415H27.744V1.76872H26.9722L26.9719 1.76905Z" fill="#0C0A09"/>
<path d="M28.1522 0.708628C28.0716 0.629262 28.0312 0.530884 28.0312 0.413836C28.0312 0.296787 28.0716 0.198414 28.1522 0.119048C28.2328 0.0396814 28.3328 0 28.4517 0C28.5706 0 28.6648 0.0396814 28.7454 0.119048C28.826 0.198414 28.8663 0.296787 28.8663 0.413836C28.8663 0.530884 28.826 0.629262 28.7454 0.708628C28.6648 0.787994 28.5669 0.827676 28.4517 0.827676C28.3365 0.827676 28.2328 0.787994 28.1522 0.708628ZM28.7742 1.24152V4.36514H28.1176V1.24152H28.7742Z" fill="#0C0A09"/>
<path d="M29.388 1.95406C29.5204 1.71029 29.7037 1.52221 29.9382 1.38982C30.1723 1.25744 30.4412 1.19141 30.7445 1.19141C31.1283 1.19141 31.4461 1.28111 31.6978 1.46085C31.9492 1.64026 32.1192 1.89637 32.2073 2.22917H31.4989C31.4413 2.07411 31.3492 1.95339 31.2225 1.86635C31.0958 1.77932 30.9365 1.73597 30.7445 1.73597C30.4758 1.73597 30.2617 1.82934 30.1021 2.01675C29.9429 2.20383 29.8633 2.4656 29.8633 2.80174C29.8633 3.13788 29.9429 3.40066 30.1021 3.58974C30.2614 3.77882 30.4755 3.87319 30.7445 3.87319C31.1246 3.87319 31.3759 3.70879 31.4989 3.37998H32.2073C32.1152 3.69745 31.9424 3.94956 31.689 4.13697C31.4356 4.32404 31.1208 4.41741 30.7445 4.41741C30.4412 4.41741 30.1723 4.35038 29.9382 4.21633C29.7041 4.08227 29.5204 3.89319 29.388 3.64943C29.2555 3.40566 29.1895 3.12321 29.1895 2.80174C29.1895 2.48028 29.2559 2.19816 29.388 1.95406Z" fill="#0C0A09"/>
<path d="M33.1144 4.28369C32.9166 4.19499 32.7604 4.07394 32.6452 3.92087C32.53 3.76781 32.4687 3.59674 32.4609 3.40799H33.1405C33.152 3.54038 33.2164 3.65076 33.3333 3.73947C33.4505 3.82817 33.5972 3.87286 33.774 3.87286C33.9509 3.87286 34.1013 3.83784 34.2033 3.76781C34.3049 3.69778 34.3557 3.60808 34.3557 3.4987C34.3557 3.38165 34.2992 3.29461 34.1857 3.23792C34.0725 3.18123 33.893 3.11887 33.647 3.05085C33.4088 2.98649 33.2151 2.92413 33.0653 2.86377C32.9156 2.80341 32.7858 2.71071 32.6764 2.58599C32.567 2.46127 32.5124 2.29687 32.5124 2.09278C32.5124 1.92638 32.5622 1.77431 32.6622 1.63626C32.7621 1.4982 32.9051 1.38949 33.0914 1.31046C33.2777 1.23109 33.4915 1.19141 33.7337 1.19141C34.0945 1.19141 34.3855 1.28111 34.6061 1.46085C34.827 1.64026 34.9449 1.88503 34.9605 2.19516H34.3039C34.2924 2.05543 34.2348 1.94372 34.1311 1.86069C34.0275 1.77765 33.8872 1.73596 33.7107 1.73596C33.5342 1.73596 33.4055 1.76798 33.3133 1.83234C33.2212 1.8967 33.1751 1.98173 33.1751 2.08745C33.1751 2.17048 33.2059 2.24051 33.2672 2.2972C33.3286 2.35389 33.4034 2.39824 33.4918 2.43026C33.5803 2.46227 33.7107 2.50295 33.8835 2.55231C34.1138 2.61267 34.3029 2.67402 34.4506 2.73638C34.5983 2.79874 34.726 2.89044 34.8338 3.01149C34.9411 3.13255 34.997 3.29295 35.0008 3.49336C35.0008 3.6711 34.951 3.82984 34.851 3.96956C34.7511 4.10929 34.6102 4.219 34.4276 4.29837C34.2453 4.37773 34.0312 4.41741 33.7852 4.41741C33.5393 4.41741 33.312 4.37306 33.1141 4.28436L33.1144 4.28369Z" fill="#0C0A09"/>
<rect y="0.177734" width="1.42946" height="1.40706" fill="#FF7A00"/>
<rect width="1.42946" height="1.40706" transform="matrix(-1 0 0 1 2.85938 1.58398)" fill="#FF7A00"/>
<rect width="1.42946" height="1.40706" transform="matrix(-1 0 0 1 1.42969 2.99219)" fill="#FF7A00"/>
<rect x="2.85938" y="0.177734" width="1.42946" height="4.22118" fill="#FF7A00"/>
</svg>
